<?xml version="1.0" encoding="utf-8"?>
<!-- Generator: Adobe Illustrator 27.0.1, SVG Export Plug-In . SVG Version: 6.00 Build 0)  -->
<svg version="1.1" id="Layer_1" xmlns="http://www.w3.org/2000/svg" xmlns:xlink="http://www.w3.org/1999/xlink" x="0px" y="0px"
	 viewBox="0 0 186 186" style="enable-background:new 0 0 186 186;" xml:space="preserve">
<style type="text/css">
	.st0{fill:#3399FF;}
	.st1{fill:#FFC10D;}
	.st2{fill:#01438F;}
</style>
<g>
	<path class="st0" d="M47.5,108.3c-3.4-5.9-2.6-13.5,2.5-18.6s12.7-5.8,18.6-2.4l14.2-14.1c-13.8-11-33.9-10.1-46.6,2.6
		s-13.7,32.8-2.7,46.6L47.5,108.3z"/>
	<path class="st1" d="M88.3,78.9L74.2,93c3.4,5.9,2.6,13.5-2.5,18.6c-5,5-12.7,5.8-18.6,2.4L39,128.1c13.8,11,33.9,10.1,46.6-2.6
		S99.3,92.7,88.3,78.9z"/>
	<path class="st1" d="M132.8,114.1c-5.9,3.4-13.5,2.6-18.6-2.5c-5-5-5.8-12.7-2.4-18.6L97.7,78.9c-11,13.8-10.1,33.9,2.6,46.6
		s32.8,13.7,46.6,2.7L132.8,114.1z"/>
	<path class="st2" d="M103.4,73.3l14.1,14.2c5.9-3.4,13.5-2.6,18.6,2.5c5,5,5.8,12.7,2.4,18.6l14.1,14.2c11-13.8,10.1-33.9-2.6-46.6
		C137.3,63.2,117.2,62.3,103.4,73.3z"/>
	<path class="st0" d="M0.3,65.7l0,20c6.6,1.8,11.4,7.8,11.4,14.9c0,7.1-4.8,13.1-11.4,14.8l0,20c17.5-2,31.1-16.8,31.1-34.8
		C31.3,82.6,17.7,67.7,0.3,65.7z"/>
	<path class="st2" d="M185.8,115.7c-6.6-1.8-11.4-7.8-11.4-14.9c0-7.1,4.9-13.1,11.4-14.8l0-20c-17.5,2-31.1,16.8-31.1,34.8
		s13.6,32.9,31,34.9L185.8,115.7z"/>
	<circle class="st0" cx="28.3" cy="61.2" r="11.1"/>
	<circle class="st1" cx="92.9" cy="61.3" r="11.1"/>
	<circle class="st2" cx="157.5" cy="61.4" r="11.1"/>
</g>
</svg>
